{"title":"MASH the Movie (1970) Donald Sutherland (DVDrip)","uid":4240578,"size":1015137596,"categoryP":"video","categoryS":"movies","magnet":"?xt=urn:btih:d9603c7e07d6228d770757f30a312a5d8d28694c&amp;dn=MASH+the+Movie+%281970%29+Donald+Sutherland+%28DVDrip%29&amp;tr=udp%3A%2F%2Ftracker.openbittorrent.com%3A80&amp;tr=udp%3A%2F%2Fopen.demonii.com%3A1337&amp;tr=udp%3A%2F%2Ftracker.coppersurfer.tk%3A6969&amp;tr=udp%3A%2F%2Fexodus.desync.com%3A6969","seeders":19,"leechers":2,"uploader":"Kuthumi","files":-1,"time":1213522520,"description":" &lt;a href=&quot;http://www.imdb.com/title/tt0066026/&quot; rel=&quot;nofollow&quot; target=&quot;_NEW&quot;&gt;http://www.imdb.com/title/tt0066026/&lt;/a&gt;\n\nDonald Sutherland made all the difference in this first and original Oscar-winning version of M*A*S*H. You who have only watched the endless TV series will notice what you have missed.\n\nThis is not my rip, I found it on the net using PirateBay's tracker, so I thought it should be represented here. Picture quality is not great and I was tempted to make a better rip, but the torrent is already well-established with lots of seeders. A full DVD is available here at PirateBay if you want better quality.\n\nWidescreen 480x272, stereo.\n\nBurn tested, runs well in my standalone DivX player.\n\nComplete name                    : D:Mash the Movie.avi\nFormat                           : AVI\nFormat/Info                      : Audio Video Interleave\nFile size                        : 968 MiB\nDuration                         : 1h 51mn\nOveral bit rate                  : 1218 Kbps\n\nVideo\nFormat                           : MPEG-4 Visual\nFormat profile                   : Simple@L1\nFormat settings, BVOP            : No\nFormat settings, QPel            : No\nFormat settings, GMC             : No warppoints\nFormat settings, Matrix          : Default\nCodec ID                         : DIVX\nCodec ID/Info                    : Project Mayo\nCodec ID/Hint                    : DivX 4\nDuration                         : 1h 51mn\nBit rate                         : 1077 Kbps\nWidth                            : 480 pixels\nHeight                           : 272 pixels\nDisplay aspect ratio             : 16/9\nFrame rate                       : 25.000 fps\nResolution                       : 8 bits\nColorimetry                      : 4:2:0\nScan type                        : Progressive\nBits/(Pixel*Frame)               : 0.330\nStream size                      : 856 MiB\nWriting library                  : avc2.0.11.1110\n\nAudio\nFormat                           : MPEG Audio\nFormat version                   : Version 1\nFormat profile                   : Layer 3\nCodec ID                         : 55\nCodec ID/Hint                    : MP3\nBit rate mode                    : Constant\nBit rate                         : 128 Kbps\nChannel(s)                       : 2 channels\nSampling rate                    : 48.0 KHz\nResolution                       : 16 bits\nStream size                      : 102 MiB\nWriting library                  : LAME3.96.1\n","torrent":{"xt":"urn:btih:d9603c7e07d6228d770757f30a312a5d8d28694c","amp;dn":"MASH+the+Movie+%281970%29+Donald+Sutherland+%28DVDrip%29","amp;tr":["udp%3A%2F%2Ftracker.openbittorrent.com%3A80","udp%3A%2F%2Fopen.demonii.com%3A1337","udp%3A%2F%2Ftracker.coppersurfer.tk%3A6969","udp%3A%2F%2Fexodus.desync.com%3A6969"],"infoHash":"d9603c7e07d6228d770757f30a312a5d8d28694c","infoHashBuffer":{"type":"Buffer","data":[217,96,60,126,7,214,34,141,119,7,87,243,10,49,42,93,141,40,105,76]},"announce":[],"urlList":[]}}